<?xml version="1.0" encoding="UTF-8" standalone="no"?>
<!DOCTYPE svg PUBLIC "-//W3C//DTD SVG 1.1//EN" "http://www.w3.org/Graphics/SVG/1.1/DTD/svg11.dtd">
<svg width="100%" height="100%" viewBox="0 0 47 45" version="1.1" xmlns="http://www.w3.org/2000/svg" xmlns:xlink="http://www.w3.org/1999/xlink" xml:space="preserve" xmlns:serif="http://www.serif.com/" style="fill-rule:evenodd;clip-rule:evenodd;stroke-linejoin:round;stroke-miterlimit:2;">
    <g transform="matrix(1,0,0,1,-2233.5,-669.852)">
        <g transform="matrix(1.0135,0,0,0.771834,391.888,-588.864)">
            <path d="M1853.47,1662.47L1853.47,1669.94C1853.47,1679.93 1847.29,1688.04 1839.67,1688.04L1833.72,1688.04C1831.13,1688.04 1828.65,1686.69 1826.82,1684.29C1825,1681.89 1823.97,1678.64 1823.97,1675.25L1823.97,1675.12C1823.97,1671.77 1824.98,1668.55 1826.79,1666.17C1828.6,1663.8 1831.06,1662.47 1833.61,1662.47L1853.47,1662.47ZM1833.54,1656.38L1833.54,1648.91C1833.54,1638.92 1839.71,1630.81 1847.34,1630.81L1853.29,1630.81C1855.87,1630.81 1858.35,1632.16 1860.18,1634.56C1862.01,1636.96 1863.04,1640.21 1863.04,1643.61L1863.04,1643.73C1863.04,1647.09 1862.02,1650.3 1860.21,1652.68C1858.4,1655.05 1855.95,1656.38 1853.39,1656.38L1833.54,1656.38ZM1823.97,1630.81C1826.73,1630.81 1828.96,1633.74 1828.96,1637.36L1828.96,1656.41C1822.4,1656.41 1817.08,1649.42 1817.08,1640.8L1817.08,1639.86C1817.08,1634.86 1820.16,1630.81 1823.97,1630.81Z"/>
        </g>
    </g>
</svg>
